<svg xmlns="http://www.w3.org/2000/svg" version="1.1" xmlns:xlink="http://www.w3.org/1999/xlink" xmlns:svgjs="http://svgjs.dev/svgjs" width="1000" height="1000" viewBox="0 0 1000 1000"><rect width="1000" height="1000" fill="#000000"></rect><g transform="matrix(0.7,0,0,0.7,149.57575757575756,375.09687374317)"><svg viewBox="0 0 396 141" data-background-color="#ffffff" preserveAspectRatio="xMidYMid meet" height="356" width="1000" xmlns="http://www.w3.org/2000/svg" xmlns:xlink="http://www.w3.org/1999/xlink"><g id="tight-bounds" transform="matrix(1,0,0,1,0.2400000000000091,0.17151204740378034)"><svg viewBox="0 0 395.52 140.65697590519244" height="140.65697590519244" width="395.52"><g><svg viewBox="0 0 687.3280964917368 244.43136" height="140.65697590519244" width="395.52"><g transform="matrix(1,0,0,1,291.80809649173676,82.07882873876487)"><svg viewBox="0 0 395.52000000000004 80.27370252247027" height="80.27370252247027" width="395.52000000000004"><g id="textblocktransform"><svg viewBox="0 0 395.52000000000004 80.27370252247027" height="80.27370252247027" width="395.52000000000004" id="textblock"><g><svg viewBox="0 0 395.52000000000004 80.27370252247027" height="80.27370252247027" width="395.52000000000004"><g transform="matrix(1,0,0,1,0,0)"><svg width="395.52000000000004" viewBox="3.299999952316284 -35 172.44000244140625 35" height="80.27370252247027" data-palette-color="#e6b17e"><path d="M19-18.85Q24.65-16.75 24.65-10L24.65-10Q24.65-5.4 21.98-2.7 19.3 0 14.6 0L14.6 0 3.3 0 3.3-35 12.4-35Q17.05-35 19.6-32.83 22.15-30.65 22.15-26.4L22.15-26.4Q22.15-23.9 21.35-21.93 20.55-19.95 19-18.85L19-18.85ZM7.85-30.85L7.85-20.4 11.85-20.4Q14.85-20.4 16.07-21.53 17.3-22.65 17.3-25.7L17.3-25.7Q17.3-28.65 16.07-29.75 14.85-30.85 11.85-30.85L11.85-30.85 7.85-30.85ZM14.2-4.15Q16.75-4.15 18.23-5.68 19.7-7.2 19.7-10.15L19.7-10.15Q19.7-13.35 18.28-14.78 16.85-16.2 14.2-16.2L14.2-16.2 7.85-16.2 7.85-4.15 14.2-4.15ZM30.2 0L30.2-35 39.2-35Q44.7-35 47.77-32.27 50.85-29.55 50.85-24.3L50.85-24.3Q50.85-21.3 49.42-18.88 48-16.45 45.45-15.05L45.45-15.05 52.45 0 47.05 0 40.8-13.7Q40-13.6 39.15-13.6L39.15-13.6 34.75-13.6 34.75 0 30.2 0ZM34.75-17.8L38.8-17.8Q42.6-17.8 44.35-19.45 46.1-21.1 46.1-24.3L46.1-24.3Q46.1-27.55 44.35-29.2 42.6-30.85 38.8-30.85L38.8-30.85 34.75-30.85 34.75-17.8ZM56.89 0L56.89-35 75.59-35 75.59-30.85 61.45-30.85 61.45-20.4 72.64-20.4 72.64-16.2 61.45-16.2 61.45-4.15 76-4.15 76 0 56.89 0ZM86.49 0L77.84-35 82.74-35 89.04-6.35 95.64-34.3 100.79-34.3 107.34-6.35 113.69-35 118.54-35 109.94 0 104.79 0 98.14-27.7 91.64 0 86.49 0ZM151.79 0L146.89 0 144.59-25.3 136.14-7.25 127.69-25.3 125.34 0 120.49 0 124.29-35 128.14-35 136.14-16.95 144.14-35 147.99-35 151.79 0ZM156.64 0L156.64-35 175.34-35 175.34-30.85 161.19-30.85 161.19-20.4 172.39-20.4 172.39-16.2 161.19-16.2 161.19-4.15 175.74-4.15 175.74 0 156.64 0Z" opacity="1" transform="matrix(1,0,0,1,0,0)" fill="#ffffff" class="undefined-text-0" data-fill-palette-color="primary" id="text-0"></path></svg></g></svg></g></svg></g></svg></g><g><svg viewBox="0 0 244.43136 244.43136" height="244.43136" width="244.43136"><g><svg viewBox="0 0 244.43136 244.43136" height="244.43136" width="244.43136"><g transform="matrix(1,0,0,1,89.9100027670678,64.60265593644993)"><svg viewBox="0 0 64.61135446586442 115.22604812710016" height="115.22604812710016" width="64.61135446586442"><g><svg xmlns="http://www.w3.org/2000/svg" xmlns:xlink="http://www.w3.org/1999/xlink" version="1.1" x="0" y="0" viewBox="10.5 0 26.915311813354492 48" enable-background="new 0 0 48 48" xml:space="preserve" height="115.22604812710016" width="64.61135446586442" class="icon-s-0" data-fill-palette-color="accent" id="s-0"><path d="M36.5 0h-25c-0.6 0-1 0.4-1 1v11.6c0 4.4 1.1 8.7 3.3 12.6 2 3.5 3 7.5 3 11.6v3.8c-1.6 0.5-2.8 1.9-2.8 3.6 0 2.1 1.7 3.8 3.8 3.8h12.3c2.1 0 3.8-1.7 3.8-3.8 0-1.7-1.2-3.2-2.8-3.6v-3.8c0-4.1 1.1-8.1 3-11.6 2.2-3.8 3.3-8.2 3.3-12.6V1C37.5 0.4 37.1 0 36.5 0zM31.9 44.2c0 1-0.8 1.8-1.8 1.8H17.9c-1 0-1.8-0.8-1.8-1.8 0-1 0.8-1.8 1.8-1.8h12.3C31.1 42.4 31.9 43.2 31.9 44.2zM32.5 24.2c-2.2 3.8-3.3 8.2-3.3 12.6v3.6H18.8v-3.6c0-4.4-1.1-8.7-3.3-12.6-2-3.5-3-7.5-3-11.6v-0.3c3.2-1.2 8.1-1.1 11.1 0.2 1.9 0.8 4.3 1.3 6.7 1.3 1.8 0 3.6-0.2 5.2-0.7C35.4 17 34.4 20.8 32.5 24.2zM35.5 11c-3.2 1.2-8.1 1.1-11.1-0.2-3.3-1.5-8.2-1.6-11.9-0.5V2h23V11z" fill="#ffffff" data-fill-palette-color="accent"></path></svg></g></svg></g><g><path d="M22.749 165.788C22.659 168.468 21.189 170.282 18.339 171.231V171.231C16.392 171.879 14.662 171.83 13.149 171.083 11.633 170.33 10.545 168.961 9.884 166.976V166.976L7.502 159.819 29.668 152.44 31.586 158.203C32.241 160.169 32.289 161.842 31.731 163.222 31.166 164.604 29.987 165.594 28.193 166.191V166.191C27.137 166.542 26.136 166.688 25.191 166.629 24.245 166.569 23.431 166.289 22.749 165.788ZM28.003 156.195L21.381 158.4 22.226 160.938C22.647 162.204 23.182 163.015 23.831 163.372 24.473 163.73 25.44 163.694 26.731 163.265V163.265C27.978 162.849 28.748 162.307 29.041 161.637 29.334 160.967 29.269 159.999 28.848 158.733V158.733ZM12.423 165.845C12.783 166.926 13.391 167.671 14.247 168.078 15.097 168.487 16.146 168.485 17.392 168.07V168.07C18.741 167.621 19.617 166.993 20.02 166.188 20.417 165.384 20.429 164.423 20.056 163.303V163.303L18.719 159.286 11.085 161.828ZM35.109 208.401L51.474 191.728 55.766 195.941C57.512 197.655 58.449 199.425 58.575 201.249 58.701 203.073 57.947 204.818 56.312 206.483V206.483C55.378 207.435 54.305 208.073 53.094 208.397 51.888 208.726 50.66 208.714 49.41 208.36V208.36L45.71 218.806 43.14 216.284 46.565 206.836C46.284 206.616 46.006 206.372 45.734 206.105V206.105L43.638 204.047 37.277 210.528ZM45.596 202.052L47.527 203.947C48.733 205.131 49.872 205.732 50.943 205.75 52.015 205.778 53.051 205.283 54.051 204.264V204.264C55.066 203.23 55.549 202.178 55.501 201.107 55.463 200.036 54.841 198.908 53.635 197.725V197.725L51.704 195.83ZM81.6 239.052L88.766 216.816 100.645 220.644 99.796 223.277 90.808 220.38 88.667 227.023 95.779 229.315 94.919 231.986 87.807 229.694 85.339 237.352 94.586 240.331 93.737 242.964ZM139.235 244.431L128.774 222.76 131.972 222.086 140.026 239.938 140.491 220.766 143.857 220.057 151.983 237.421 152.186 217.831 155.354 217.164 154.548 241.207 151.183 241.916 143.034 224.742 142.591 243.725ZM210.811 206.996L208.387 209.187 195.929 197.687 199.824 210.408 187.559 205.255 197.719 218.832 195.317 221.004 181.529 201.975 183.439 200.248 195.48 205.604 191.362 193.085 193.264 191.366ZM232.72 171.608L210.772 163.603 215.048 151.878 217.646 152.826 214.411 161.698 220.968 164.089 223.528 157.069 226.164 158.031 223.604 165.051 231.162 167.807 234.491 158.68 237.089 159.628Z" fill="#ffffff" data-fill-palette-color="accent"></path><path d="M14.392 83.908C16.071 81.817 18.335 81.245 21.185 82.194V82.194C23.131 82.842 24.487 83.919 25.25 85.424 26.012 86.935 26.063 88.683 25.402 90.668V90.668L23.019 97.824 0.853 90.445 2.772 84.682C3.427 82.716 4.391 81.348 5.665 80.578 6.939 79.808 8.472 79.722 10.266 80.319V80.319C11.322 80.67 12.214 81.154 12.942 81.771 13.663 82.386 14.146 83.098 14.393 83.908ZM4.437 88.437L11.059 90.642 11.904 88.103C12.325 86.837 12.383 85.867 12.078 85.193 11.772 84.519 10.977 83.968 9.692 83.541V83.541C8.445 83.125 7.504 83.098 6.868 83.459 6.232 83.82 5.703 84.633 5.282 85.899V85.899ZM22.695 90.042C23.053 88.967 23.011 88.01 22.57 87.171 22.135 86.333 21.294 85.707 20.047 85.292V85.292C18.699 84.843 17.622 84.82 16.816 85.223 16.019 85.622 15.434 86.382 15.062 87.501V87.501L13.721 91.528 21.355 94.069ZM46.565 55.749L30.2 39.077 34.492 34.864C36.238 33.15 38.022 32.245 39.843 32.148 41.67 32.056 43.402 32.845 45.041 34.514V34.514C45.976 35.467 46.596 36.549 46.903 37.76 47.204 38.977 47.169 40.205 46.797 41.443V41.443L57.165 45.344 54.596 47.866 45.214 44.266C44.988 44.544 44.739 44.816 44.467 45.084V45.084L42.371 47.141 48.732 53.622ZM40.405 45.139L42.336 43.244C43.542 42.06 44.169 40.933 44.216 39.862 44.255 38.791 43.776 37.748 42.781 36.734V36.734C41.766 35.7 40.725 35.195 39.658 35.218 38.582 35.241 37.441 35.845 36.235 37.028V37.028L34.305 38.923ZM86.615 28.993L79.448 6.757 91.327 2.929 92.176 5.561 83.187 8.458 85.328 15.101 92.45 12.806 93.311 15.476 86.189 17.771 88.657 25.429 97.903 22.449 98.752 25.081ZM135.863 24.05L135.026 0 138.224 0.673 138.4 20.247 146.553 2.899 149.919 3.608 150.357 22.764 158.438 4.928 161.607 5.595 151.175 27.273 147.82 26.567 147.279 7.554 139.228 24.759ZM199.848 57.619L197.423 55.427 207.613 41.863 195.341 47.023 199.243 34.295 186.748 45.776 184.346 43.604 201.893 27.974 203.803 29.701 199.684 42.219 211.726 36.864 213.635 38.59ZM217.354 86.471L239.301 78.465 243.578 90.19 240.98 91.138 237.744 82.266 231.187 84.658 233.751 91.687 231.115 92.649 228.551 85.619 220.993 88.376 224.322 97.503 221.723 98.451Z" fill="#ffffff" data-fill-palette-color="accent"></path><path d="M1.985 126.239C1.985 121.31 5.981 117.315 10.91 117.315 15.838 117.315 19.834 121.31 19.834 126.239 19.834 131.168 15.838 135.163 10.91 135.163 5.981 135.163 1.985 131.168 1.985 126.239ZM224.443 126.239C224.443 121.31 228.438 117.315 233.367 117.315 238.296 117.315 242.291 121.31 242.291 126.239 242.291 131.168 238.296 135.163 233.367 135.163 228.438 135.163 224.443 131.168 224.443 126.239Z" fill="#ffffff" data-fill-palette-color="accent"></path></g></svg></g></svg></g></svg></g><defs></defs></svg><rect width="395.52" height="140.65697590519244" fill="none" stroke="none" visibility="hidden"></rect></g></svg></g></svg>